<svg id="Capa_1" data-name="Capa 1" xmlns="http://www.w3.org/2000/svg" viewBox="0 0 566.93 566.93"><defs><style>.cls-1{fill:none;}.cls-2{fill:#fff;}</style></defs><title>Elite Glass Logo</title><path class="cls-1" d="M364.77,409.8h5.63a2.87,2.87,0,0,0,1.57-.49,3.1,3.1,0,0,0,1.15-1.24l1.79-3.65a2.61,2.61,0,0,1,1.11-1.23,3.06,3.06,0,0,1,1.61-.5h17.55a2.94,2.94,0,0,1,1.58.5,3.34,3.34,0,0,1,1.14,1.17l1.85,3.71a2.66,2.66,0,0,0,1.12,1.24,3,3,0,0,0,1.6.49h5.63a1.13,1.13,0,0,0,1.08-.49,1.18,1.18,0,0,0-.09-1.18L387.64,365.3a1.29,1.29,0,0,0-1.24-.74,1.27,1.27,0,0,0-1.23.74l-21.45,42.83a1.24,1.24,0,0,0,0,1.18A1.12,1.12,0,0,0,364.77,409.8Zm16-16.38,4.88-10.2c.21-.49.47-.74.8-.74s.6.25.81.74l4.82,10.2a1.33,1.33,0,0,1,0,1.21,1.11,1.11,0,0,1-1.08.52h-9.15a1.19,1.19,0,0,1-1.11-.49A1.29,1.29,0,0,1,380.72,393.42Z"/><path class="cls-1" d="M270.72,466.5a1.13,1.13,0,0,0,2,0l16.55-35.68a1.11,1.11,0,0,0,0-1,1,1,0,0,0-.93-.41h-4.81a2.55,2.55,0,0,0-1.34.41,2.2,2.2,0,0,0-.93,1l-8.85,19c-.17.37-.39.56-.67.56s-.5-.19-.67-.56l-8.84-19a2.28,2.28,0,0,0-.94-1,2.55,2.55,0,0,0-1.34-.41H255.1a1,1,0,0,0-.88.41,1.11,1.11,0,0,0,0,1Z"/><path class="cls-1" d="M414.28,385.51a12.75,12.75,0,0,0,3.34,2.41,17.5,17.5,0,0,0,3.77,1.55,18.52,18.52,0,0,0,3.7.92c.58.13,1.14.24,1.67.34l1.49.28,2,.37c.63.13,1.26.27,1.88.43s1.26.34,1.79.5a11.27,11.27,0,0,1,1.49.56,7.17,7.17,0,0,1,2.22,1.54,3.58,3.58,0,0,1,.87,2.35,4.23,4.23,0,0,1-.56,2.1,6.09,6.09,0,0,1-1.67,1.92,8.37,8.37,0,0,1-2.72,1.36,11.36,11.36,0,0,1-3.71.55,16.92,16.92,0,0,1-7.6-1.73,51.8,51.8,0,0,1-5.44-3,2,2,0,0,0-1.42-.31,1.66,1.66,0,0,0-1.17.8l-2.6,3.83a2,2,0,0,0-.31,1.42,1.66,1.66,0,0,0,.81,1.18c.45.33.88.63,1.29.89s.83.53,1.24.78q1,.62,2,1.14t2.16,1a22.15,22.15,0,0,0,4.89,1.42,30.79,30.79,0,0,0,6.24.56,27.07,27.07,0,0,0,7-.87,15.15,15.15,0,0,0,5.44-2.59,11.17,11.17,0,0,0,3.52-4.27,14.26,14.26,0,0,0,1.24-6.12,13.08,13.08,0,0,0-.93-5.19,10.45,10.45,0,0,0-2.35-3.59c-.24-.24-.5-.48-.77-.71a8.82,8.82,0,0,0-.89-.64,13.12,13.12,0,0,0-1.64-1c-.64-.33-1.21-.6-1.7-.81l-1-.37c-.35-.12-.69-.22-1-.31-.62-.2-1.24-.38-1.86-.52a17.52,17.52,0,0,0-1.79-.34,15.69,15.69,0,0,1-1.6-.31c-.5-.13-1-.23-1.43-.31s-1.16-.31-1.76-.43-1.2-.27-1.82-.44-1.21-.32-1.76-.49-1.11-.35-1.64-.56a8,8,0,0,1-2.54-1.54,3,3,0,0,1-1-2.29,3.6,3.6,0,0,1,.8-2.35,5.19,5.19,0,0,1,1-.86,8,8,0,0,1,1.14-.68,12.84,12.84,0,0,1,2.72-.93c.45-.08.9-.14,1.33-.19s.83-.06,1.2-.06a16.4,16.4,0,0,1,6.25,1.18,24,24,0,0,1,4.57,2.35,2,2,0,0,0,1.45.3,1.85,1.85,0,0,0,1.27-.8l2.6-3.71a1.83,1.83,0,0,0,.37-1.42,1.89,1.89,0,0,0-.81-1.23q-.67-.37-1.23-.75l-1.18-.74c-.57-.33-1.17-.65-1.79-1a20.57,20.57,0,0,0-1.92-.83c-.65-.21-1.32-.4-2-.59a21.77,21.77,0,0,0-2.14-.46,30.68,30.68,0,0,0-5.06-.37,28,28,0,0,0-5.94.62,18.47,18.47,0,0,0-5.56,2.1,12.61,12.61,0,0,0-4.08,4.14,12.79,12.79,0,0,0-1.61,6.61,11.9,11.9,0,0,0,.87,4.7A10.25,10.25,0,0,0,414.28,385.51Z"/><path class="cls-1" d="M282.69,403.74a23.91,23.91,0,0,0,7.48,5.07,22.5,22.5,0,0,0,9.09,1.86,24,24,0,0,0,8.4-1.49,22.31,22.31,0,0,0,7-4.14,21.67,21.67,0,0,0,5-6.24,19.74,19.74,0,0,0,2.29-7.91,10.05,10.05,0,0,0,.1-1.42c0-.83,0-1.65.09-2.48a1.86,1.86,0,0,0-.56-1.36,1.84,1.84,0,0,0-1.36-.55H298a1.88,1.88,0,0,0-1.91,1.91v4a1.84,1.84,0,0,0,.55,1.36,1.86,1.86,0,0,0,1.36.56h12.86a1.42,1.42,0,0,1,1.2.52,1.12,1.12,0,0,1,0,1.27,9.06,9.06,0,0,1-1.23,2.16,14.83,14.83,0,0,1-3.15,3.09,13.62,13.62,0,0,1-4,2,13.94,13.94,0,0,1-4.51.74,12.86,12.86,0,0,1-5.75-1.3,13.92,13.92,0,0,1-4.7-3.33,17.13,17.13,0,0,1-3.21-4.89,14.52,14.52,0,0,1-1.18-5.87,14.8,14.8,0,0,1,1.18-5.87,17.22,17.22,0,0,1,3.21-4.88,14.89,14.89,0,0,1,4.7-3.4,13.91,13.91,0,0,1,5.75-1.24,13.16,13.16,0,0,1,6.92,2,12.88,12.88,0,0,1,2.13,1.54,23,23,0,0,1,1.83,1.86,2.72,2.72,0,0,0,1.32.74,1.84,1.84,0,0,0,1.46-.25l4.2-2.53A1.83,1.83,0,0,0,318,374a1.57,1.57,0,0,0-.35-1.35,22.31,22.31,0,0,0-7.1-6.06,23.41,23.41,0,0,0-20.34-1,25.44,25.44,0,0,0-7.48,5,23.64,23.64,0,0,0-2.87,3.46,22.41,22.41,0,0,0-2.19,4,23.25,23.25,0,0,0-1.86,9.15,22.54,22.54,0,0,0,1.86,9.09A23.66,23.66,0,0,0,282.69,403.74Z"/><path class="cls-1" d="M406.74,429.45a16,16,0,0,0-1.78-.39,25.68,25.68,0,0,0-4.24-.31,23.49,23.49,0,0,0-5,.52A15.39,15.39,0,0,0,391.1,431a9.95,9.95,0,0,0-4.76,9,9.87,9.87,0,0,0,.73,3.93,8.58,8.58,0,0,0,2,2.9,10.65,10.65,0,0,0,2.8,2,14.43,14.43,0,0,0,3.15,1.3,15.77,15.77,0,0,0,3.1.77l1.4.29,1.24.23,1.68.31c.53.1,1.06.22,1.58.36s1.05.28,1.5.42a9.43,9.43,0,0,1,1.24.46,6.21,6.21,0,0,1,1.86,1.29,3,3,0,0,1,.72,2,3.53,3.53,0,0,1-.46,1.76,5.08,5.08,0,0,1-1.4,1.6,7,7,0,0,1-2.27,1.14,9.51,9.51,0,0,1-3.11.46,14.2,14.2,0,0,1-6.36-1.45,42.16,42.16,0,0,1-4.55-2.48A1.65,1.65,0,0,0,390,457a1.41,1.41,0,0,0-1,.68l-2.17,3.2a1.66,1.66,0,0,0-.26,1.19,1.38,1.38,0,0,0,.67,1c.38.28.74.53,1.09.75s.69.44,1,.65c.55.35,1.12.66,1.71,1s1.19.56,1.81.8a18.48,18.48,0,0,0,4.09,1.19,25.76,25.76,0,0,0,5.22.46,22.9,22.9,0,0,0,5.84-.72,12.63,12.63,0,0,0,4.55-2.17,9.24,9.24,0,0,0,2.95-3.57,12,12,0,0,0,1-5.12,11.08,11.08,0,0,0-.77-4.34,8.74,8.74,0,0,0-2-3c-.2-.21-.42-.41-.64-.6a7.19,7.19,0,0,0-.75-.54,11,11,0,0,0-1.37-.83c-.54-.27-1-.5-1.43-.67l-.85-.31c-.29-.1-.58-.19-.85-.26-.52-.17-1-.32-1.55-.44s-1-.21-1.5-.28-.93-.16-1.35-.26-.81-.19-1.19-.26-1-.26-1.47-.36l-1.53-.36-1.47-.42c-.47-.14-.92-.29-1.37-.46a6.75,6.75,0,0,1-2.12-1.3,2.51,2.51,0,0,1-.83-1.91,3,3,0,0,1,.67-2,4.32,4.32,0,0,1,.81-.73,8,8,0,0,1,.95-.57,10.56,10.56,0,0,1,2.28-.77c.38-.07.75-.12,1.11-.16s.7,0,1,0a13.89,13.89,0,0,1,5.22,1,20.57,20.57,0,0,1,3.83,2,1.69,1.69,0,0,0,1.21.26,1.59,1.59,0,0,0,1.06-.68l2.17-3.1a1.52,1.52,0,0,0-.36-2.22c-.38-.21-.72-.42-1-.62s-.64-.42-1-.62-1-.55-1.5-.81-1.06-.49-1.61-.69S407.31,429.6,406.74,429.45Z"/><path class="cls-1" d="M301,429.37h-4.09a1.48,1.48,0,0,0-1.11.46,1.61,1.61,0,0,0-.44,1.14v34.6a1.6,1.6,0,0,0,.44,1.13,1.49,1.49,0,0,0,1.11.47H301a1.59,1.59,0,0,0,1.6-1.6V431a1.57,1.57,0,0,0-1.6-1.6Z"/><path class="cls-1" d="M320.72,439.3a12.4,12.4,0,0,1,3.88-2.85,11.82,11.82,0,0,1,4.86-1,10.39,10.39,0,0,1,3.1.46c.49.18,1,.37,1.45.57a11,11,0,0,1,1.4.73,12.83,12.83,0,0,1,1.26.88,12.33,12.33,0,0,1,1.17,1l.51.54.52.55a2.07,2.07,0,0,0,1.11.69,1.88,1.88,0,0,0,1.27-.07l3.83-1.55a1.39,1.39,0,0,0,.82-.81,1.19,1.19,0,0,0-.15-1.11,20.21,20.21,0,0,0-2.22-2.74q-.88-.87-1.89-1.68a19.69,19.69,0,0,0-6.9-3.49,20,20,0,0,0-5.28-.72,18.75,18.75,0,0,0-7.6,1.55,19.41,19.41,0,0,0-10.45,10.44,19.43,19.43,0,0,0,0,15.21,19.85,19.85,0,0,0,10.45,10.44,18.75,18.75,0,0,0,7.6,1.55,20,20,0,0,0,5.28-.72,20.21,20.21,0,0,0,2.48-.88,16.88,16.88,0,0,0,2.27-1.19,18,18,0,0,0,4-3.15,16.1,16.1,0,0,0,1.16-1.32c.36-.47.71-.94,1.06-1.42a1.24,1.24,0,0,0,.15-1.14,1.37,1.37,0,0,0-.82-.83l-3.83-1.55a1.77,1.77,0,0,0-1.27-.05,2.24,2.24,0,0,0-1.11.72l-.52.54c-.17.19-.34.38-.51.55-.38.38-.77.73-1.17,1.06a10.28,10.28,0,0,1-1.26.9,11,11,0,0,1-1.4.73c-.48.2-1,.39-1.45.56a10.09,10.09,0,0,1-3.1.47,12.2,12.2,0,0,1-8.74-3.88,14.74,14.74,0,0,1-2.64-4.08,12.38,12.38,0,0,1-1-4.92,12.58,12.58,0,0,1,1-4.91A14.74,14.74,0,0,1,320.72,439.3Z"/><path class="cls-1" d="M456.31,385.51a12.87,12.87,0,0,0,3.33,2.41,17.92,17.92,0,0,0,3.77,1.55,18.78,18.78,0,0,0,3.71.92c.58.13,1.14.24,1.67.34l1.48.28,2,.37c.64.13,1.27.27,1.89.43s1.26.34,1.79.5a10.62,10.62,0,0,1,1.48.56,7.23,7.23,0,0,1,2.23,1.54,3.57,3.57,0,0,1,.86,2.35,4.22,4.22,0,0,1-.55,2.1,6.09,6.09,0,0,1-1.67,1.92,8.37,8.37,0,0,1-2.72,1.36,11.36,11.36,0,0,1-3.71.55,16.92,16.92,0,0,1-7.6-1.73,51.8,51.8,0,0,1-5.44-3,2,2,0,0,0-1.42-.31,1.64,1.64,0,0,0-1.17.8l-2.6,3.83a2,2,0,0,0-.31,1.42,1.68,1.68,0,0,0,.8,1.18c.46.33.89.63,1.3.89s.82.53,1.24.78q1,.62,2,1.14t2.16,1a22.22,22.22,0,0,0,4.88,1.42,30.9,30.9,0,0,0,6.25.56,27.07,27.07,0,0,0,7-.87,15.15,15.15,0,0,0,5.44-2.59,11.17,11.17,0,0,0,3.52-4.27,14.26,14.26,0,0,0,1.24-6.12,13.08,13.08,0,0,0-.93-5.19,10.45,10.45,0,0,0-2.35-3.59c-.25-.24-.5-.48-.77-.71a8,8,0,0,0-.9-.64,12.94,12.94,0,0,0-1.63-1c-.64-.33-1.21-.6-1.7-.81l-1-.37c-.36-.12-.69-.22-1-.31-.62-.2-1.24-.38-1.86-.52a18.05,18.05,0,0,0-1.79-.34c-.58-.08-1.11-.19-1.61-.31s-1-.23-1.42-.31-1.16-.31-1.76-.43-1.21-.27-1.82-.44-1.21-.32-1.77-.49-1.1-.35-1.63-.56a8,8,0,0,1-2.54-1.54,3,3,0,0,1-1-2.29,3.61,3.61,0,0,1,.81-2.35,5.19,5.19,0,0,1,1-.86,8,8,0,0,1,1.14-.68,12.65,12.65,0,0,1,2.72-.93c.45-.08.89-.14,1.33-.19s.83-.06,1.2-.06a16.31,16.31,0,0,1,6.24,1.18,23.76,23.76,0,0,1,4.58,2.35,2,2,0,0,0,1.45.3,1.85,1.85,0,0,0,1.27-.8l2.59-3.71a1.79,1.79,0,0,0,.37-1.42,1.88,1.88,0,0,0-.8-1.23c-.45-.25-.86-.5-1.24-.75l-1.17-.74c-.58-.33-1.17-.65-1.79-1a20.57,20.57,0,0,0-1.92-.83c-.66-.21-1.33-.4-2-.59s-1.39-.34-2.13-.46a30.72,30.72,0,0,0-5.07-.37,27.89,27.89,0,0,0-5.93.62,18.37,18.37,0,0,0-5.56,2.1,12.61,12.61,0,0,0-4.08,4.14,12.79,12.79,0,0,0-1.61,6.61,11.9,11.9,0,0,0,.87,4.7A10.11,10.11,0,0,0,456.31,385.51Z"/><path class="cls-1" d="M378.43,429.32H353.76a1.59,1.59,0,0,0-1.6,1.6v34.65a1.6,1.6,0,0,0,1.6,1.6h24.67a1.59,1.59,0,0,0,1.6-1.6v-3.31a1.59,1.59,0,0,0-1.6-1.61H361a1.59,1.59,0,0,1-1.6-1.6v-5.69a1.57,1.57,0,0,1,.47-1.14,1.54,1.54,0,0,1,1.13-.46h15.1a1.6,1.6,0,0,0,1.61-1.6v-3.37a1.6,1.6,0,0,0-1.61-1.6H361a1.59,1.59,0,0,1-1.6-1.6v-6.26a1.59,1.59,0,0,1,1.6-1.6h17.43a1.59,1.59,0,0,0,1.6-1.61v-3.2a1.57,1.57,0,0,0-1.6-1.6Z"/><path class="cls-1" d="M331.33,409.8h28.75a1.9,1.9,0,0,0,1.91-1.92v-3.83a1.88,1.88,0,0,0-1.91-1.91H340a1.91,1.91,0,0,1-1.92-1.92V366.47a1.88,1.88,0,0,0-1.91-1.91h-4.83a1.83,1.83,0,0,0-1.35.55,1.86,1.86,0,0,0-.56,1.36v41.41a1.85,1.85,0,0,0,.56,1.36A1.8,1.8,0,0,0,331.33,409.8Z"/><path class="cls-1" d="M121.87,409.8h28.74a1.81,1.81,0,0,0,1.36-.56,1.85,1.85,0,0,0,.56-1.36v-3.83a1.86,1.86,0,0,0-.56-1.36,1.84,1.84,0,0,0-1.36-.55H130.52a1.88,1.88,0,0,1-1.36-.56,1.84,1.84,0,0,1-.55-1.36V366.47a1.86,1.86,0,0,0-.56-1.36,1.84,1.84,0,0,0-1.36-.55h-4.82a1.88,1.88,0,0,0-1.91,1.91v41.41a1.9,1.9,0,0,0,1.91,1.92Z"/><path class="cls-1" d="M150.34,440a10.05,10.05,0,0,0,.72,3.93,8.6,8.6,0,0,0,2,2.9,10.44,10.44,0,0,0,2.79,2,14.43,14.43,0,0,0,3.15,1.3,15.86,15.86,0,0,0,3.11.77l1.39.29,1.24.23,1.68.31c.54.1,1.06.22,1.58.36s1,.28,1.5.42a9.43,9.43,0,0,1,1.24.46,6.21,6.21,0,0,1,1.86,1.29,3,3,0,0,1,.73,2,3.54,3.54,0,0,1-.47,1.76,5,5,0,0,1-1.4,1.6,6.83,6.83,0,0,1-2.27,1.14,9.49,9.49,0,0,1-3.1.46,14.14,14.14,0,0,1-6.36-1.45,41.23,41.23,0,0,1-4.55-2.48A1.66,1.66,0,0,0,154,457a1.43,1.43,0,0,0-1,.68l-2.17,3.2a1.66,1.66,0,0,0-.26,1.19,1.39,1.39,0,0,0,.68,1c.37.28.74.53,1.08.75s.69.44,1,.65c.55.35,1.12.66,1.7,1s1.19.56,1.81.8a18.48,18.48,0,0,0,4.09,1.19,25.76,25.76,0,0,0,5.22.46,22.85,22.85,0,0,0,5.84-.72A12.63,12.63,0,0,0,176.6,465a9.24,9.24,0,0,0,3-3.57,12,12,0,0,0,1-5.12,10.9,10.9,0,0,0-.78-4.34,8.72,8.72,0,0,0-2-3c-.21-.21-.43-.41-.65-.6a7.19,7.19,0,0,0-.75-.54,11,11,0,0,0-1.37-.83c-.54-.27-1-.5-1.42-.67l-.86-.31c-.29-.1-.57-.19-.85-.26-.52-.17-1-.32-1.55-.44s-1-.21-1.5-.28-.93-.16-1.35-.26-.81-.19-1.18-.26-1-.26-1.48-.36l-1.52-.36-1.48-.42c-.46-.14-.92-.29-1.37-.46a6.75,6.75,0,0,1-2.12-1.3,2.51,2.51,0,0,1-.83-1.91,3,3,0,0,1,.68-2,4.59,4.59,0,0,1,.8-.73,7.37,7.37,0,0,1,1-.57,10.47,10.47,0,0,1,2.27-.77c.38-.07.75-.12,1.11-.16s.7,0,1,0a13.89,13.89,0,0,1,5.22,1,20.27,20.27,0,0,1,3.83,2,1.7,1.7,0,0,0,1.22.26,1.61,1.61,0,0,0,1.06-.68l2.17-3.1a1.56,1.56,0,0,0,.31-1.19,1.6,1.6,0,0,0-.67-1c-.38-.21-.73-.42-1-.62s-.64-.42-1-.62-1-.55-1.5-.81-1.05-.49-1.6-.69-1.12-.34-1.68-.49a16.16,16.16,0,0,0-1.79-.39,25.6,25.6,0,0,0-4.24-.31,23.39,23.39,0,0,0-5,.52,15.45,15.45,0,0,0-4.66,1.75,9.91,9.91,0,0,0-4.75,9Z"/><path class="cls-1" d="M78.3,409.24a1.81,1.81,0,0,0,1.36.56h29.48a1.83,1.83,0,0,0,1.36-.56,1.85,1.85,0,0,0,.56-1.36v-3.95a1.91,1.91,0,0,0-1.92-1.92H88.31a1.84,1.84,0,0,1-1.36-.55,1.86,1.86,0,0,1-.56-1.36v-6.8a1.91,1.91,0,0,1,1.92-1.92h18a1.88,1.88,0,0,0,1.91-1.91v-4a1.84,1.84,0,0,0-.55-1.36,1.86,1.86,0,0,0-1.36-.56h-18A1.84,1.84,0,0,1,87,383a1.86,1.86,0,0,1-.56-1.36v-7.48a1.91,1.91,0,0,1,1.92-1.92h20.83a1.86,1.86,0,0,0,1.36-.55,1.88,1.88,0,0,0,.56-1.36v-3.84a1.9,1.9,0,0,0-1.92-1.91H79.66a1.84,1.84,0,0,0-1.36.55,1.86,1.86,0,0,0-.56,1.36v41.41A1.85,1.85,0,0,0,78.3,409.24Z"/><path class="cls-1" d="M161.06,409.8h4.88a1.83,1.83,0,0,0,1.36-.56,1.85,1.85,0,0,0,.56-1.36V366.54a1.91,1.91,0,0,0-1.92-1.92h-4.88a1.75,1.75,0,0,0-1.33.56,1.9,1.9,0,0,0-.53,1.36v41.34a1.9,1.9,0,0,0,.53,1.36A1.72,1.72,0,0,0,161.06,409.8Z"/><path class="cls-1" d="M216.81,409.8h29.48a1.83,1.83,0,0,0,1.36-.56,1.85,1.85,0,0,0,.56-1.36v-3.95a1.91,1.91,0,0,0-1.92-1.92H225.46a1.84,1.84,0,0,1-1.36-.55,1.86,1.86,0,0,1-.56-1.36v-6.8a1.91,1.91,0,0,1,1.92-1.92h18a1.88,1.88,0,0,0,1.91-1.91v-4a1.84,1.84,0,0,0-.55-1.36,1.86,1.86,0,0,0-1.36-.56h-18a1.84,1.84,0,0,1-1.36-.55,1.86,1.86,0,0,1-.56-1.36v-7.48a1.91,1.91,0,0,1,1.92-1.92h20.83a1.86,1.86,0,0,0,1.36-.55,1.88,1.88,0,0,0,.56-1.36v-3.84a1.9,1.9,0,0,0-1.92-1.91H216.81a1.84,1.84,0,0,0-1.36.55,1.86,1.86,0,0,0-.56,1.36v41.41a1.85,1.85,0,0,0,.56,1.36A1.81,1.81,0,0,0,216.81,409.8Z"/><path class="cls-1" d="M187.1,429.78a1.55,1.55,0,0,0-.46,1.14v34.65a1.59,1.59,0,0,0,1.6,1.6h24.67a1.6,1.6,0,0,0,1.6-1.6v-3.31a1.6,1.6,0,0,0-1.6-1.61H195.48a1.57,1.57,0,0,1-1.6-1.6v-5.69a1.56,1.56,0,0,1,.46-1.14,1.55,1.55,0,0,1,1.14-.46h15.1a1.59,1.59,0,0,0,1.6-1.6v-3.37a1.59,1.59,0,0,0-1.6-1.6h-15.1a1.57,1.57,0,0,1-1.6-1.6v-6.26a1.57,1.57,0,0,1,1.6-1.6h17.43a1.6,1.6,0,0,0,1.6-1.61v-3.2a1.59,1.59,0,0,0-1.6-1.6H188.24A1.55,1.55,0,0,0,187.1,429.78Z"/><path class="cls-1" d="M176.32,372.22h9.15a1.91,1.91,0,0,1,1.92,1.92v33.74a1.9,1.9,0,0,0,1.91,1.92h4.82a1.81,1.81,0,0,0,1.36-.56,1.85,1.85,0,0,0,.56-1.36V374.14a1.91,1.91,0,0,1,1.92-1.92H207a1.84,1.84,0,0,0,1.36-.55,1.88,1.88,0,0,0,.56-1.36v-3.84a1.86,1.86,0,0,0-.56-1.36,1.84,1.84,0,0,0-1.36-.55H176.32a1.88,1.88,0,0,0-1.91,1.91v3.84a1.88,1.88,0,0,0,1.91,1.91Z"/><path class="cls-1" d="M239.17,429.32H223.56a1.59,1.59,0,0,0-1.61,1.6v34.65a1.6,1.6,0,0,0,1.61,1.6h4.08a1.46,1.46,0,0,0,1.11-.47,1.56,1.56,0,0,0,.44-1.13v-8.85a1.55,1.55,0,0,1,.47-1.13,1.52,1.52,0,0,1,1.14-.47h4a3.09,3.09,0,0,1,1.39.36,3,3,0,0,1,1.14.93l3.42,4.81c.58.8,1.16,1.58,1.73,2.35s1.14,1.57,1.73,2.36a3.36,3.36,0,0,0,1.14.88,3.13,3.13,0,0,0,1.39.36H252a.8.8,0,0,0,.85-.57,1.25,1.25,0,0,0-.23-1.14q-1.86-2.58-3.6-4.88c-1.15-1.54-2.37-3.17-3.64-4.89a1.13,1.13,0,0,1-.26-1.06,1.36,1.36,0,0,1,.72-.85,12.2,12.2,0,0,0,4.3-3.93,13,13,0,0,0,2.12-7.5,14.44,14.44,0,0,0-.94-5.28,12.86,12.86,0,0,0-1.13-2.22,11.88,11.88,0,0,0-1.55-1.91,13.46,13.46,0,0,0-4.09-2.69A14.81,14.81,0,0,0,239.17,429.32Zm5.8,13a6.55,6.55,0,0,1-.52,2.79,7.13,7.13,0,0,1-1.35,2,5.07,5.07,0,0,1-1.91,1.18,5.62,5.62,0,0,1-2,.42H230.8a1.6,1.6,0,0,1-1.61-1.6v-9.78a1.59,1.59,0,0,1,1.61-1.6h8.37a5.79,5.79,0,0,1,3.05.72,5.38,5.38,0,0,1,1.76,1.76,11,11,0,0,1,.47,1.06,6.1,6.1,0,0,1,.31,1.11A9.94,9.94,0,0,1,245,442.35Z"/><path class="cls-2" d="M244,438.21a5.38,5.38,0,0,0-1.76-1.76,5.79,5.79,0,0,0-3.05-.72H230.8a1.59,1.59,0,0,0-1.61,1.6v9.78a1.6,1.6,0,0,0,1.61,1.6h8.37a5.62,5.62,0,0,0,2-.42,5.07,5.07,0,0,0,1.91-1.18,7.13,7.13,0,0,0,1.35-2,6.55,6.55,0,0,0,.52-2.79,9.94,9.94,0,0,0-.21-2,6.1,6.1,0,0,0-.31-1.11A11,11,0,0,0,244,438.21Z"/><path class="cls-2" d="M381.83,395.15H391a1.11,1.11,0,0,0,1.08-.52,1.33,1.33,0,0,0,0-1.21l-4.82-10.2c-.21-.49-.48-.74-.81-.74s-.59.25-.8.74l-4.88,10.2a1.29,1.29,0,0,0,0,1.24A1.19,1.19,0,0,0,381.83,395.15Z"/><path class="cls-2" d="M283.46,563.93c132.34,0,243.55-90.4,275.28-212.8H8.19C39.92,473.53,151.13,563.93,283.46,563.93Zm19.16-98.36a1.59,1.59,0,0,1-1.6,1.6h-4.09a1.49,1.49,0,0,1-1.11-.47,1.6,1.6,0,0,1-.44-1.13V431a1.61,1.61,0,0,1,.44-1.14,1.48,1.48,0,0,1,1.11-.46H301a1.57,1.57,0,0,1,1.6,1.6Zm15.46-12.36a14.74,14.74,0,0,0,2.64,4.08,12.2,12.2,0,0,0,8.74,3.88,10.09,10.09,0,0,0,3.1-.47c.49-.17,1-.36,1.45-.56a11,11,0,0,0,1.4-.73,10.28,10.28,0,0,0,1.26-.9c.4-.33.79-.68,1.17-1.06.17-.17.34-.36.51-.55l.52-.54a2.24,2.24,0,0,1,1.11-.72,1.77,1.77,0,0,1,1.27.05l3.83,1.55a1.37,1.37,0,0,1,.82.83,1.24,1.24,0,0,1-.15,1.14c-.35.48-.7,1-1.06,1.42a16.1,16.1,0,0,1-1.16,1.32,18,18,0,0,1-4,3.15,16.88,16.88,0,0,1-2.27,1.19,20.21,20.21,0,0,1-2.48.88,20,20,0,0,1-5.28.72,18.75,18.75,0,0,1-7.6-1.55,19.85,19.85,0,0,1-10.45-10.44,19.43,19.43,0,0,1,0-15.21,19.41,19.41,0,0,1,10.45-10.44,18.75,18.75,0,0,1,7.6-1.55,20,20,0,0,1,5.28.72,19.69,19.69,0,0,1,6.9,3.49q1,.81,1.89,1.68a20.21,20.21,0,0,1,2.22,2.74,1.19,1.19,0,0,1,.15,1.11,1.39,1.39,0,0,1-.82.81l-3.83,1.55a1.88,1.88,0,0,1-1.27.07,2.07,2.07,0,0,1-1.11-.69l-.52-.55-.51-.54a12.33,12.33,0,0,0-1.17-1,12.83,12.83,0,0,0-1.26-.88,11,11,0,0,0-1.4-.73c-.48-.2-1-.39-1.45-.57a10.39,10.39,0,0,0-3.1-.46,11.82,11.82,0,0,0-4.86,1,12.4,12.4,0,0,0-3.88,2.85,14.74,14.74,0,0,0-2.64,4.08,12.58,12.58,0,0,0-1,4.91A12.38,12.38,0,0,0,318.08,453.21ZM380,434.12a1.59,1.59,0,0,1-1.6,1.61H361a1.59,1.59,0,0,0-1.6,1.6v6.26a1.59,1.59,0,0,0,1.6,1.6h15.1a1.6,1.6,0,0,1,1.61,1.6v3.37a1.6,1.6,0,0,1-1.61,1.6H361a1.54,1.54,0,0,0-1.13.46,1.57,1.57,0,0,0-.47,1.14v5.69a1.59,1.59,0,0,0,1.6,1.6h17.43a1.59,1.59,0,0,1,1.6,1.61v3.31a1.59,1.59,0,0,1-1.6,1.6H353.76a1.6,1.6,0,0,1-1.6-1.6V430.92a1.59,1.59,0,0,1,1.6-1.6h24.67a1.57,1.57,0,0,1,1.6,1.6Zm74.61-63.38a12.61,12.61,0,0,1,4.08-4.14,18.37,18.37,0,0,1,5.56-2.1,27.89,27.89,0,0,1,5.93-.62,30.72,30.72,0,0,1,5.07.37c.74.12,1.45.28,2.13.46s1.35.38,2,.59a20.57,20.57,0,0,1,1.92.83c.62.31,1.21.63,1.79,1l1.17.74c.38.25.79.5,1.24.75a1.88,1.88,0,0,1,.8,1.23,1.79,1.79,0,0,1-.37,1.42l-2.59,3.71a1.85,1.85,0,0,1-1.27.8,2,2,0,0,1-1.45-.3,23.76,23.76,0,0,0-4.58-2.35,16.31,16.31,0,0,0-6.24-1.18q-.55,0-1.2.06c-.44,0-.88.11-1.33.19a12.65,12.65,0,0,0-2.72.93,8,8,0,0,0-1.14.68,5.19,5.19,0,0,0-1,.86,3.61,3.61,0,0,0-.81,2.35,3,3,0,0,0,1,2.29,8,8,0,0,0,2.54,1.54c.53.21,1.08.4,1.63.56s1.15.33,1.77.49,1.22.31,1.82.44,1.18.26,1.76.43.93.18,1.42.31,1,.23,1.61.31a18.05,18.05,0,0,1,1.79.34c.62.14,1.24.32,1.86.52.33.09.66.19,1,.31l1,.37c.49.21,1.06.48,1.7.81a12.94,12.94,0,0,1,1.63,1,8,8,0,0,1,.9.64c.27.23.52.47.77.71a10.45,10.45,0,0,1,2.35,3.59,13.08,13.08,0,0,1,.93,5.19,14.26,14.26,0,0,1-1.24,6.12,11.17,11.17,0,0,1-3.52,4.27A15.15,15.15,0,0,1,479,409.8a27.07,27.07,0,0,1-7,.87,30.9,30.9,0,0,1-6.25-.56,22.22,22.22,0,0,1-4.88-1.42q-1.11-.44-2.16-1t-2-1.14c-.42-.25-.83-.51-1.24-.78s-.84-.56-1.3-.89a1.68,1.68,0,0,1-.8-1.18,2,2,0,0,1,.31-1.42l2.6-3.83a1.64,1.64,0,0,1,1.17-.8,2,2,0,0,1,1.42.31,51.8,51.8,0,0,0,5.44,3,16.92,16.92,0,0,0,7.6,1.73,11.36,11.36,0,0,0,3.71-.55,8.37,8.37,0,0,0,2.72-1.36,6.09,6.09,0,0,0,1.67-1.92,4.22,4.22,0,0,0,.55-2.1,3.57,3.57,0,0,0-.86-2.35,7.23,7.23,0,0,0-2.23-1.54,10.62,10.62,0,0,0-1.48-.56c-.53-.16-1.13-.33-1.79-.5s-1.25-.3-1.89-.43l-2-.37-1.48-.28c-.53-.1-1.09-.21-1.67-.34a18.78,18.78,0,0,1-3.71-.92,17.92,17.92,0,0,1-3.77-1.55,12.87,12.87,0,0,1-3.33-2.41,10.11,10.11,0,0,1-2.41-3.46,11.9,11.9,0,0,1-.87-4.7A12.79,12.79,0,0,1,454.64,370.74Zm-42,0a12.61,12.61,0,0,1,4.08-4.14,18.47,18.47,0,0,1,5.56-2.1,28,28,0,0,1,5.94-.62,30.68,30.68,0,0,1,5.06.37,21.77,21.77,0,0,1,2.14.46c.68.19,1.35.38,2,.59a20.57,20.57,0,0,1,1.92.83c.62.31,1.22.63,1.79,1l1.18.74q.56.38,1.23.75a1.89,1.89,0,0,1,.81,1.23,1.83,1.83,0,0,1-.37,1.42l-2.6,3.71a1.85,1.85,0,0,1-1.27.8,2,2,0,0,1-1.45-.3,24,24,0,0,0-4.57-2.35,16.4,16.4,0,0,0-6.25-1.18q-.56,0-1.2.06c-.43,0-.88.11-1.33.19a12.84,12.84,0,0,0-2.72.93,8,8,0,0,0-1.14.68,5.19,5.19,0,0,0-1,.86,3.6,3.6,0,0,0-.8,2.35,3,3,0,0,0,1,2.29,8,8,0,0,0,2.54,1.54c.53.21,1.08.4,1.64.56s1.14.33,1.76.49,1.22.31,1.82.44,1.19.26,1.76.43.93.18,1.43.31a15.69,15.69,0,0,0,1.6.31,17.52,17.52,0,0,1,1.79.34c.62.14,1.24.32,1.86.52.33.09.67.19,1,.31l1,.37c.49.21,1.06.48,1.7.81a13.12,13.12,0,0,1,1.64,1,8.82,8.82,0,0,1,.89.64c.27.23.53.47.77.71a10.45,10.45,0,0,1,2.35,3.59,13.08,13.08,0,0,1,.93,5.19,14.26,14.26,0,0,1-1.24,6.12,11.17,11.17,0,0,1-3.52,4.27A15.15,15.15,0,0,1,437,409.8a27.07,27.07,0,0,1-7,.87,30.79,30.79,0,0,1-6.24-.56,22.15,22.15,0,0,1-4.89-1.42q-1.11-.44-2.16-1t-2-1.14c-.41-.25-.83-.51-1.24-.78s-.84-.56-1.29-.89a1.66,1.66,0,0,1-.81-1.18,2,2,0,0,1,.31-1.42l2.6-3.83a1.66,1.66,0,0,1,1.17-.8,2,2,0,0,1,1.42.31,51.8,51.8,0,0,0,5.44,3,16.92,16.92,0,0,0,7.6,1.73,11.36,11.36,0,0,0,3.71-.55,8.37,8.37,0,0,0,2.72-1.36,6.09,6.09,0,0,0,1.67-1.92,4.23,4.23,0,0,0,.56-2.1,3.58,3.58,0,0,0-.87-2.35,7.17,7.17,0,0,0-2.22-1.54,11.27,11.27,0,0,0-1.49-.56c-.53-.16-1.13-.33-1.79-.5s-1.25-.3-1.88-.43l-2-.37-1.49-.28c-.53-.1-1.09-.21-1.67-.34a18.52,18.52,0,0,1-3.7-.92,17.5,17.5,0,0,1-3.77-1.55,12.75,12.75,0,0,1-3.34-2.41,10.25,10.25,0,0,1-2.41-3.46,11.9,11.9,0,0,1-.87-4.7A12.79,12.79,0,0,1,412.61,370.74Zm-1.08,60.7c.34.2.67.41,1,.62s.65.41,1,.62a1.52,1.52,0,0,1,.36,2.22l-2.17,3.1a1.59,1.59,0,0,1-1.06.68,1.69,1.69,0,0,1-1.21-.26,20.57,20.57,0,0,0-3.83-2,13.89,13.89,0,0,0-5.22-1c-.31,0-.65,0-1,0s-.73.09-1.11.16a10.56,10.56,0,0,0-2.28.77,8,8,0,0,0-.95.57,4.32,4.32,0,0,0-.81.73,3,3,0,0,0-.67,2,2.51,2.51,0,0,0,.83,1.91,6.75,6.75,0,0,0,2.12,1.3c.45.17.9.32,1.37.46l1.47.42,1.53.36q.75.15,1.47.36c.38.07.78.15,1.19.26s.86.19,1.35.26,1,.16,1.5.28,1,.27,1.55.44c.27.07.56.16.85.26l.85.31c.42.17.89.4,1.43.67a11,11,0,0,1,1.37.83,7.19,7.19,0,0,1,.75.54c.22.19.44.39.64.6a8.74,8.74,0,0,1,2,3,11.08,11.08,0,0,1,.77,4.34,12,12,0,0,1-1,5.12,9.24,9.24,0,0,1-2.95,3.57,12.63,12.63,0,0,1-4.55,2.17,22.9,22.9,0,0,1-5.84.72,25.76,25.76,0,0,1-5.22-.46,18.48,18.48,0,0,1-4.09-1.19c-.62-.24-1.22-.51-1.81-.8s-1.16-.61-1.71-1c-.34-.21-.69-.42-1-.65s-.71-.47-1.09-.75a1.38,1.38,0,0,1-.67-1,1.66,1.66,0,0,1,.26-1.19l2.17-3.2a1.41,1.41,0,0,1,1-.68,1.65,1.65,0,0,1,1.19.26,42.16,42.16,0,0,0,4.55,2.48,14.2,14.2,0,0,0,6.36,1.45,9.51,9.51,0,0,0,3.11-.46,7,7,0,0,0,2.27-1.14,5.08,5.08,0,0,0,1.4-1.6,3.53,3.53,0,0,0,.46-1.76,3,3,0,0,0-.72-2,6.21,6.21,0,0,0-1.86-1.29,9.43,9.43,0,0,0-1.24-.46q-.67-.21-1.5-.42c-.52-.14-1-.26-1.58-.36l-1.68-.31-1.24-.23-1.4-.29a15.77,15.77,0,0,1-3.1-.77,14.43,14.43,0,0,1-3.15-1.3,10.65,10.65,0,0,1-2.8-2,8.58,8.58,0,0,1-2-2.9,9.87,9.87,0,0,1-.73-3.93,9.95,9.95,0,0,1,4.76-9,15.39,15.39,0,0,1,4.65-1.75,23.49,23.49,0,0,1,5-.52,25.68,25.68,0,0,1,4.24.31,16,16,0,0,1,1.78.39c.57.15,1.13.31,1.68.49s1.09.44,1.61.69S411,431.16,411.53,431.44Zm-47.81-23.31,21.45-42.83a1.27,1.27,0,0,1,1.23-.74,1.29,1.29,0,0,1,1.24.74l21.45,42.83a1.18,1.18,0,0,1,.09,1.18,1.13,1.13,0,0,1-1.08.49h-5.63a3,3,0,0,1-1.6-.49,2.66,2.66,0,0,1-1.12-1.24l-1.85-3.71a3.34,3.34,0,0,0-1.14-1.17,2.94,2.94,0,0,0-1.58-.5H377.63a3.06,3.06,0,0,0-1.61.5,2.61,2.61,0,0,0-1.11,1.23l-1.79,3.65a3.1,3.1,0,0,1-1.15,1.24,2.87,2.87,0,0,1-1.57.49h-5.63a1.12,1.12,0,0,1-1.08-.49A1.24,1.24,0,0,1,363.72,408.13Zm-34.3-41.66a1.86,1.86,0,0,1,.56-1.36,1.83,1.83,0,0,1,1.35-.55h4.83a1.88,1.88,0,0,1,1.91,1.91v33.75a1.91,1.91,0,0,0,1.92,1.92h20.09a1.88,1.88,0,0,1,1.91,1.91v3.83a1.9,1.9,0,0,1-1.91,1.92H331.33a1.8,1.8,0,0,1-1.35-.56,1.85,1.85,0,0,1-.56-1.36Zm-51.79,11.62a22.41,22.41,0,0,1,2.19-4,23.64,23.64,0,0,1,2.87-3.46,25.44,25.44,0,0,1,7.48-5,23.17,23.17,0,0,1,27.44,7.05A1.57,1.57,0,0,1,318,374a1.83,1.83,0,0,1-.84,1.18l-4.2,2.53a1.84,1.84,0,0,1-1.46.25,2.72,2.72,0,0,1-1.32-.74,23,23,0,0,0-1.83-1.86,12.88,12.88,0,0,0-2.13-1.54,13.16,13.16,0,0,0-6.92-2,13.91,13.91,0,0,0-5.75,1.24,14.89,14.89,0,0,0-4.7,3.4,17.22,17.22,0,0,0-3.21,4.88,14.8,14.8,0,0,0-1.18,5.87,14.52,14.52,0,0,0,1.18,5.87,17.13,17.13,0,0,0,3.21,4.89,13.92,13.92,0,0,0,4.7,3.33,12.86,12.86,0,0,0,5.75,1.3,13.94,13.94,0,0,0,4.51-.74,13.62,13.62,0,0,0,4-2,14.83,14.83,0,0,0,3.15-3.09,9.06,9.06,0,0,0,1.23-2.16,1.12,1.12,0,0,0,0-1.27,1.42,1.42,0,0,0-1.2-.52H298a1.86,1.86,0,0,1-1.36-.56,1.84,1.84,0,0,1-.55-1.36v-4a1.88,1.88,0,0,1,1.91-1.91h22.25a1.84,1.84,0,0,1,1.36.55,1.86,1.86,0,0,1,.56,1.36c0,.83-.08,1.65-.09,2.48a10.05,10.05,0,0,1-.1,1.42,19.74,19.74,0,0,1-2.29,7.91,21.67,21.67,0,0,1-5,6.24,22.31,22.31,0,0,1-7,4.14,24,24,0,0,1-8.4,1.49,22.5,22.5,0,0,1-9.09-1.86,23.91,23.91,0,0,1-7.48-5.07,23.66,23.66,0,0,1-5.06-7.41,22.54,22.54,0,0,1-1.86-9.09A23.25,23.25,0,0,1,277.63,378.09Zm-23.41,51.69a1,1,0,0,1,.88-.41h4.81a2.55,2.55,0,0,1,1.34.41,2.28,2.28,0,0,1,.94,1l8.84,19c.17.37.39.56.67.56s.5-.19.67-.56l8.85-19a2.2,2.2,0,0,1,.93-1,2.55,2.55,0,0,1,1.34-.41h4.81a1,1,0,0,1,.93.41,1.11,1.11,0,0,1,0,1L272.68,466.5a1.13,1.13,0,0,1-2,0l-16.5-35.68A1.11,1.11,0,0,1,254.22,429.78Zm-4.08,5.07a12.86,12.86,0,0,1,1.13,2.22,14.44,14.44,0,0,1,.94,5.28,13,13,0,0,1-2.12,7.5,12.2,12.2,0,0,1-4.3,3.93,1.36,1.36,0,0,0-.72.85,1.13,1.13,0,0,0,.26,1.06c1.27,1.72,2.49,3.35,3.64,4.89s2.36,3.16,3.6,4.88a1.25,1.25,0,0,1,.23,1.14.8.8,0,0,1-.85.57h-5.23a3.13,3.13,0,0,1-1.39-.36,3.36,3.36,0,0,1-1.14-.88c-.59-.79-1.16-1.58-1.73-2.36s-1.15-1.55-1.73-2.35l-3.42-4.81a3,3,0,0,0-1.14-.93,3.09,3.09,0,0,0-1.39-.36h-4a1.52,1.52,0,0,0-1.14.47,1.55,1.55,0,0,0-.47,1.13v8.85a1.56,1.56,0,0,1-.44,1.13,1.46,1.46,0,0,1-1.11.47h-4.08a1.6,1.6,0,0,1-1.61-1.6V430.92a1.59,1.59,0,0,1,1.61-1.6h15.61a14.81,14.81,0,0,1,5.33.93,13.46,13.46,0,0,1,4.09,2.69A11.88,11.88,0,0,1,250.14,434.85Zm-35.25-68.38a1.86,1.86,0,0,1,.56-1.36,1.84,1.84,0,0,1,1.36-.55h29.48a1.9,1.9,0,0,1,1.92,1.91v3.84a1.88,1.88,0,0,1-.56,1.36,1.86,1.86,0,0,1-1.36.55H225.46a1.91,1.91,0,0,0-1.92,1.92v7.48a1.86,1.86,0,0,0,.56,1.36,1.84,1.84,0,0,0,1.36.55h18a1.86,1.86,0,0,1,1.36.56,1.84,1.84,0,0,1,.55,1.36v4a1.88,1.88,0,0,1-1.91,1.91h-18a1.91,1.91,0,0,0-1.92,1.92v6.8a1.86,1.86,0,0,0,.56,1.36,1.84,1.84,0,0,0,1.36.55h20.83a1.91,1.91,0,0,1,1.92,1.92v3.95a1.85,1.85,0,0,1-.56,1.36,1.83,1.83,0,0,1-1.36.56H216.81a1.81,1.81,0,0,1-1.36-.56,1.85,1.85,0,0,1-.56-1.36ZM214,429.78a1.55,1.55,0,0,1,.47,1.14v3.2a1.6,1.6,0,0,1-1.6,1.61H195.48a1.57,1.57,0,0,0-1.6,1.6v6.26a1.57,1.57,0,0,0,1.6,1.6h15.1a1.59,1.59,0,0,1,1.6,1.6v3.37a1.59,1.59,0,0,1-1.6,1.6h-15.1a1.55,1.55,0,0,0-1.14.46,1.56,1.56,0,0,0-.46,1.14v5.69a1.57,1.57,0,0,0,1.6,1.6h17.43a1.6,1.6,0,0,1,1.6,1.61v3.31a1.6,1.6,0,0,1-1.6,1.6H188.24a1.59,1.59,0,0,1-1.6-1.6V430.92a1.57,1.57,0,0,1,1.6-1.6h24.67A1.54,1.54,0,0,1,214,429.78Zm-39.63-63.31a1.88,1.88,0,0,1,1.91-1.91H207a1.84,1.84,0,0,1,1.36.55,1.86,1.86,0,0,1,.56,1.36v3.84a1.88,1.88,0,0,1-.56,1.36,1.84,1.84,0,0,1-1.36.55H198a1.91,1.91,0,0,0-1.92,1.92v33.74a1.85,1.85,0,0,1-.56,1.36,1.81,1.81,0,0,1-1.36.56H189.3a1.9,1.9,0,0,1-1.91-1.92V374.14a1.91,1.91,0,0,0-1.92-1.92h-9.15a1.88,1.88,0,0,1-1.91-1.91Zm-15.21.07a1.9,1.9,0,0,1,.53-1.36,1.75,1.75,0,0,1,1.33-.56h4.88a1.91,1.91,0,0,1,1.92,1.92v41.34a1.85,1.85,0,0,1-.56,1.36,1.83,1.83,0,0,1-1.36.56h-4.88a1.72,1.72,0,0,1-1.33-.56,1.9,1.9,0,0,1-.53-1.36ZM155.09,431a15.45,15.45,0,0,1,4.66-1.75,23.39,23.39,0,0,1,5-.52,25.6,25.6,0,0,1,4.24.31,16.16,16.16,0,0,1,1.79.39c.56.15,1.12.31,1.68.49s1.08.44,1.6.69,1,.53,1.5.81.67.41,1,.62.66.41,1,.62a1.6,1.6,0,0,1,.67,1,1.56,1.56,0,0,1-.31,1.19l-2.17,3.1a1.61,1.61,0,0,1-1.06.68,1.7,1.7,0,0,1-1.22-.26,20.27,20.27,0,0,0-3.83-2,13.89,13.89,0,0,0-5.22-1c-.31,0-.65,0-1,0s-.73.09-1.11.16a10.47,10.47,0,0,0-2.27.77,7.37,7.37,0,0,0-1,.57,4.59,4.59,0,0,0-.8.73,3,3,0,0,0-.68,2,2.51,2.51,0,0,0,.83,1.91,6.75,6.75,0,0,0,2.12,1.3c.45.17.91.32,1.37.46l1.48.42,1.52.36c.5.1,1,.22,1.48.36s.77.15,1.18.26.87.19,1.35.26,1,.16,1.5.28,1,.27,1.55.44c.28.07.56.16.85.26l.86.31c.41.17.88.4,1.42.67a11,11,0,0,1,1.37.83,7.19,7.19,0,0,1,.75.54c.22.19.44.39.65.6a8.72,8.72,0,0,1,2,3,10.9,10.9,0,0,1,.78,4.34,12,12,0,0,1-1,5.12,9.24,9.24,0,0,1-3,3.57,12.63,12.63,0,0,1-4.55,2.17,22.85,22.85,0,0,1-5.84.72,25.76,25.76,0,0,1-5.22-.46,18.48,18.48,0,0,1-4.09-1.19c-.62-.24-1.22-.51-1.81-.8s-1.15-.61-1.7-1c-.35-.21-.69-.42-1-.65s-.71-.47-1.08-.75a1.39,1.39,0,0,1-.68-1,1.66,1.66,0,0,1,.26-1.19l2.17-3.2a1.43,1.43,0,0,1,1-.68,1.66,1.66,0,0,1,1.19.26,41.23,41.23,0,0,0,4.55,2.48,14.14,14.14,0,0,0,6.36,1.45,9.49,9.49,0,0,0,3.1-.46,6.83,6.83,0,0,0,2.27-1.14,5,5,0,0,0,1.4-1.6,3.54,3.54,0,0,0,.47-1.76,3,3,0,0,0-.73-2,6.21,6.21,0,0,0-1.86-1.29,9.43,9.43,0,0,0-1.24-.46q-.68-.21-1.5-.42c-.52-.14-1-.26-1.58-.36l-1.68-.31-1.24-.23-1.39-.29a15.86,15.86,0,0,1-3.11-.77,14.43,14.43,0,0,1-3.15-1.3,10.44,10.44,0,0,1-2.79-2,8.6,8.6,0,0,1-2-2.9,10.05,10.05,0,0,1-.72-3.93,9.91,9.91,0,0,1,4.75-9ZM120,366.47a1.88,1.88,0,0,1,1.91-1.91h4.82a1.84,1.84,0,0,1,1.36.55,1.86,1.86,0,0,1,.56,1.36v33.75a1.84,1.84,0,0,0,.55,1.36,1.88,1.88,0,0,0,1.36.56h20.09a1.84,1.84,0,0,1,1.36.55,1.86,1.86,0,0,1,.56,1.36v3.83a1.85,1.85,0,0,1-.56,1.36,1.81,1.81,0,0,1-1.36.56H121.87a1.9,1.9,0,0,1-1.91-1.92ZM78.3,365.11a1.84,1.84,0,0,1,1.36-.55h29.48a1.9,1.9,0,0,1,1.92,1.91v3.84a1.88,1.88,0,0,1-.56,1.36,1.86,1.86,0,0,1-1.36.55H88.31a1.91,1.91,0,0,0-1.92,1.92v7.48A1.86,1.86,0,0,0,87,383a1.84,1.84,0,0,0,1.36.55h18a1.86,1.86,0,0,1,1.36.56,1.84,1.84,0,0,1,.55,1.36v4a1.88,1.88,0,0,1-1.91,1.91h-18a1.91,1.91,0,0,0-1.92,1.92v6.8a1.86,1.86,0,0,0,.56,1.36,1.84,1.84,0,0,0,1.36.55h20.83a1.91,1.91,0,0,1,1.92,1.92v3.95a1.85,1.85,0,0,1-.56,1.36,1.83,1.83,0,0,1-1.36.56H79.66a1.81,1.81,0,0,1-1.36-.56,1.85,1.85,0,0,1-.56-1.36V366.47A1.86,1.86,0,0,1,78.3,365.11Z"/><path class="cls-1" d="M488.94,269.06,286.37,95.1l1.36,211.2ZM290.2,303.31l-.76-117.54,54.43,46.89,4.27,57.87-52.32-44.94-5.09-3.89,58.34,50.72Zm50.41-122,53.17,46,7.2,53.51-56.46-48.46Zm8.51,111.1-4.53-59.13,57.29,49.36Zm53-9.8-7.68-54.8L448,274.11Zm81.29-15.05-35.3,6.53-9.32-41.85,1.94,9.95L446.8,272l-52.55-45.3L389,189.29l1.46,13.35,3.17,23.55-53.09-45.76L338,147.8v6.06L340,179.94l-39.54-34.09-7.28-5.58L340,180.81l3.76,50.9-46-39.51-8.32-6.47-.54-85.18Z"/><path class="cls-1" d="M279.5,306.15,280.86,95l-202.57,174ZM118.42,273.81l53-45.87-7.6,54.28Zm53.66-46.41,53.17-46-3.91,51-56.46,48.45Zm-7.58,54.93,56.77-48.91L216.78,292ZM277,303.17,217.3,292.11l57.83-50.27L270,245.72l-52.32,44.94L222,232.79l54.84-47.25-8.73,6.79-46,39.51,3.76-50.9,46.89-40.54L265.43,146l-39.54,34.08L227.81,154v-6.06l-2.49,32.63-53.09,45.77,3.17-23.56,1.46-13.35-5.25,37.44-52.55,45.3,6.11-29.84,1.94-9.95-9.2,41.34-34-6.3,194.48-167Z"/><path class="cls-1" d="M284.46,309.07l-.1-215.51a.83.83,0,1,0-1.66,0l.1,215.51a.83.83,0,1,0,1.66,0Z"/><path class="cls-1" d="M284,87.71l-.81-.69L43.48,290.91l241.38,60,.3.08,237-59.42Zm-.81,2.58L495.55,272.08,283.83,312.9l-214.18-41ZM68.84,272.61l214.91,41.12.08,0,212.53-41,13.75,11.78L284.5,336.22,55.9,283.61Zm216.32,75.82L48.78,289.67l6.34-5.39L284.4,337.05l.1-.4.09.4L510.9,285.22l6,5.12Z"/><polygon class="cls-2" points="349.12 292.41 401.88 282.64 344.59 233.28 349.12 292.41"/><polygon class="cls-2" points="297.76 192.2 343.8 231.71 340.04 180.81 293.15 140.27 300.43 145.85 339.97 179.94 338.05 153.86 338.05 147.79 340.54 180.43 393.63 226.19 390.46 202.64 389 189.29 394.25 226.72 446.8 272.02 440.69 242.19 438.75 232.24 448.07 274.09 483.37 267.56 288.89 100.55 289.44 185.73 297.76 192.2"/><polygon class="cls-2" points="402.08 282.61 447.95 274.12 394.4 227.81 402.08 282.61"/><polygon class="cls-2" points="225.25 181.44 172.08 227.41 164.88 280.91 221.34 232.46 225.25 181.44"/><polygon class="cls-2" points="510.12 284.55 496.36 272.77 283.83 313.75 283.75 313.73 68.84 272.61 55.91 283.61 284.5 336.22 510.12 284.55"/><polygon class="cls-2" points="393.78 227.27 340.61 181.31 344.52 232.32 400.98 280.78 393.78 227.27"/><polygon class="cls-2" points="295.82 245.59 348.14 290.53 343.87 232.66 289.44 185.77 290.2 303.31 349.07 292.42 290.73 241.7 295.82 245.59"/><path class="cls-2" d="M566.93,283.67C566.93,127.12,440,.21,283.46.21S0,127.12,0,283.67a284.22,284.22,0,0,0,8.92,70.84H558A284.22,284.22,0,0,0,566.93,283.67ZM284.86,350.92l-241.38-60L283.16,87l.81.69L522.16,291.58,285.16,351Z"/><path class="cls-2" d="M495.55,272.08,283.16,90.29,69.65,271.92l214.18,41Zm-6.61-3L287.73,306.3,286.37,95.1ZM279.5,306.15,78.29,268.91,280.86,95Zm3.3,2.92-.1-215.51a.83.83,0,1,1,1.66,0l.1,215.51a.83.83,0,1,1-1.66,0Z"/><polygon class="cls-2" points="117.91 273.71 127.11 232.37 125.17 242.32 119.06 272.16 171.61 226.86 176.86 189.42 175.4 202.77 172.23 226.32 225.32 180.56 227.81 147.93 227.81 153.99 225.89 180.07 265.43 145.99 272.71 140.41 225.82 180.94 222.06 231.84 268.1 192.33 276.83 185.54 221.99 232.79 217.72 290.66 270.04 245.72 275.13 241.84 217.3 292.11 277.03 303.17 278.34 100.4 83.86 267.41 117.91 273.71"/><polygon class="cls-2" points="510.9 285.22 284.59 337.05 284.5 336.65 284.4 337.05 55.12 284.28 48.78 289.67 285.16 348.43 516.88 290.34 510.9 285.22"/><polygon class="cls-2" points="164.5 282.33 216.78 292.01 221.27 233.41 164.5 282.33"/><polygon class="cls-2" points="118.42 273.81 163.86 282.22 171.46 227.94 118.42 273.81"/></svg>